<svg xmlns="http://www.w3.org/2000/svg" viewBox="0 0 420 520"><defs><style>.cls-1,.cls-15,.cls-16,.cls-21,.cls-28,.cls-36,.cls-37,.cls-38,.cls-44,.cls-46,.cls-7,.cls-9{fill:none}.cls-2{fill:#957fc7}.cls-3{clip-path:url(#clip-path)}.cls-4{fill:#736299}.cls-5{fill:#ededed}.cls-6{fill:#c3bacc}.cls-7{stroke:#6a6573}.cls-21,.cls-28,.cls-36,.cls-37,.cls-38,.cls-44,.cls-46,.cls-7,.cls-9{stroke-linecap:round}.cls-15,.cls-16,.cls-28,.cls-36,.cls-37,.cls-38,.cls-44,.cls-46,.cls-7,.cls-9{stroke-miterlimit:10}.cls-16,.cls-7,.cls-9{stroke-width:2px}.cls-8{fill:#49464d}.cls-9{stroke:#635e66}.cls-10{fill:#b3865a}.cls-11{fill:#fdc993}.cls-12{fill:#cc9f70}.cls-13{fill:#91abff}.cls-14{fill:#fff}.cls-15{stroke:#c3bacc}.cls-16{stroke:#dbd1e6}.cls-17{fill:#dbd1e6}.cls-18{fill:#839ae6}.cls-19{fill:#d6e0ff}.cls-20{fill:#e6e6e6}.cls-21{stroke:#c9cacc;stroke-linejoin:round}.cls-22{fill:#404040}.cls-23{fill:#1a1a1a}.cls-24{fill:#97d9cd}.cls-25{clip-path:url(#clip-path-2)}.cls-26{fill:#656166}.cls-27{fill:#e06463}.cls-28{stroke:#b33939}.cls-29{fill:#b33939}.cls-30{fill:#402620}.cls-31{fill:#ffb4a6}.cls-32{fill:#bf5d4c}.cls-33{fill:#cc7a6a}.cls-34{fill:#424242}.cls-35{fill:#4a4a4a}.cls-36{stroke:#cc7a6a}.cls-37{stroke:#6ca69c}.cls-38{stroke:#cdc9d1}.cls-39{fill:#6ca69c}.cls-40{fill:#331e1a}.cls-41{fill:#cdc9d1}.cls-42{fill:#291a1b}.cls-43{fill:#d4755f}.cls-44{stroke:#261d1b}.cls-45{fill:#d96c6c}.cls-46{stroke:#291a1b;stroke-width:.5px}.cls-47{fill:#ff9493}.cls-48{opacity:.7}.cls-49{opacity:.3}</style><clipPath id="clip-path"><path id="_Caminho_de_recorte_" data-name="&lt;Caminho de recorte&gt;" class="cls-1" d="M40.95 250.74c-7.59 34.63-33.68 118.09 67.37 175.89 101.47 58 226.28 46.67 263.55-14.05 36-58.63-27.23-91.48-79.83-270.11C251.1 3.44 71.7 110.43 40.95 250.74z"/></clipPath><clipPath id="clip-path-2"><path id="_Caminho_de_recorte_2" data-name="&lt;Caminho de recorte&gt;" class="cls-1" d="M40.95 250.74c-7.59 34.63-33.68 118.09 67.37 175.89 101.47 58 226.28 46.67 263.55-14.05 36-58.63 3.13-84.59-23.5-268.89-24-166.07-276.67-33.26-307.42 107.05z"/></clipPath></defs><title>ilustra</title><g id="Layer_1" data-name="Layer 1"><g id="_Grupo_" data-name="&lt;Grupo&gt;"><path id="_Caminho_" data-name="&lt;Caminho&gt;" class="cls-2" d="M40.95 250.74c-7.59 34.63-33.68 118.09 67.37 175.89 101.47 58 226.28 46.67 263.55-14.05 36-58.63-27.23-91.48-79.83-270.11C251.1 3.44 71.7 110.43 40.95 250.74z"/><g class="cls-3" id="_Grupo_de_clipes_" data-name="&lt;Grupo de clipes&gt;"><path id="_Caminho_2" data-name="&lt;Caminho&gt;" class="cls-4" d="M190.07 163.53a.43.43 0 0 0-.4-.35V99.74h-1.62v63.45h-.11a.43.43 0 0 0-.42.35l-.65 3.45a.43.43 0 0 0 .42.51h.76v.85h1.62v-.85h.63a.43.43 0 0 0 .42-.51z"/><path id="_Retângulo_" data-name="&lt;Retângulo&gt;" class="cls-5" d="M61.67 394.94h328.7v99.92H61.67z"/><path id="_Retângulo_2" data-name="&lt;Retângulo&gt;" class="cls-6" d="M38.37 382.79h352v12.16h-352z"/><g id="_Grupo_2" data-name="&lt;Grupo&gt;"><path id="_Caminho_3" data-name="&lt;Caminho&gt;" class="cls-7" d="M261.82 334.39l-21.64-37.65"/><path id="_Caminho_4" data-name="&lt;Caminho&gt;" class="cls-8" d="M258.06 465.77c0 .82.89 1.81 3.13 1.81 2 0 3.13-1 3.13-1.81V295h-6.25z"/><path id="_Retângulo_3" data-name="&lt;Retângulo&gt;" class="cls-8" d="M178.75 294.97h6.89v198.86h-6.89z"/><path id="_Retângulo_4" data-name="&lt;Retângulo&gt;" class="cls-8" d="M86.7 375.43h8.29v198.86H86.7z"/><path id="_Caminho_5" data-name="&lt;Caminho&gt;" class="cls-9" d="M260.16 334.39l-24.1-32.42"/><path id="_Caminho_6" data-name="&lt;Caminho&gt;" class="cls-10" d="M270.73 294.97l-170.17 84.81H-79.08l261.28-84.81h88.53z"/><path id="_Caminho_7" data-name="&lt;Caminho&gt;" class="cls-11" d="M270.73 283.91l-170.17 84.81h-247.95l261.27-84.81h156.85z"/><path id="_Caminho_8" data-name="&lt;Caminho&gt;" class="cls-12" d="M270.73 283.91v11.06l-170.17 84.81v-11.06l170.17-84.81z"/></g><path id="_Retângulo_5" data-name="&lt;Retângulo&gt;" class="cls-13" d="M197.13 59.62h166.49v129.36H197.13z"/><path id="_Retângulo_6" data-name="&lt;Retângulo&gt;" class="cls-11" d="M192.7 188.98h170.92v8.78H192.7z"/><path id="_Retângulo_7" data-name="&lt;Retângulo&gt;" class="cls-12" d="M192.7 197.76h170.92v1.68H192.7z"/><path id="_Retângulo_8" data-name="&lt;Retângulo&gt;" class="cls-14" d="M193.37 77.56h139.5v25.06h-139.5z"/><g id="_Grupo_3" data-name="&lt;Grupo&gt;"><path id="_Caminho_9" data-name="&lt;Caminho&gt;" class="cls-15" d="M193.37 101.29h80.16"/><path id="_Caminho_10" data-name="&lt;Caminho&gt;" class="cls-15" d="M193.37 99.13h80.16"/><path id="_Caminho_11" data-name="&lt;Caminho&gt;" class="cls-15" d="M193.37 96.97h80.16"/><path id="_Caminho_12" data-name="&lt;Caminho&gt;" class="cls-15" d="M193.37 94.81h80.16"/><path id="_Caminho_13" data-name="&lt;Caminho&gt;" class="cls-15" d="M193.37 92.66h80.16"/><path id="_Caminho_14" data-name="&lt;Caminho&gt;" class="cls-15" d="M193.37 90.5h80.16"/><path id="_Caminho_15" data-name="&lt;Caminho&gt;" class="cls-15" d="M193.37 88.34h80.16"/><path id="_Caminho_16" data-name="&lt;Caminho&gt;" class="cls-15" d="M193.37 86.19h80.16"/><path id="_Caminho_17" data-name="&lt;Caminho&gt;" class="cls-15" d="M193.37 84.03h80.16"/><path id="_Caminho_18" data-name="&lt;Caminho&gt;" class="cls-15" d="M193.37 81.87h80.16"/><path id="_Caminho_19" data-name="&lt;Caminho&gt;" class="cls-15" d="M193.37 79.71h80.16"/><path id="_Caminho_20" data-name="&lt;Caminho&gt;" class="cls-15" d="M193.37 77.56h80.16"/></g><path id="_Caminho_21" data-name="&lt;Caminho&gt;" class="cls-16" d="M188.87 79.99v84.88"/><path id="_Caminho_22" data-name="&lt;Caminho&gt;" class="cls-17" d="M190.64 163.82h-3.72a.53.53 0 0 1-.52-.63l.8-4.27a.53.53 0 0 1 .52-.43h2.12a.53.53 0 0 1 .52.43l.8 4.27a.53.53 0 0 1-.52.63z"/><path id="_Caminho_23" data-name="&lt;Caminho&gt;" class="cls-18" d="M261.12 139.62s-27.5 16.64-33.43 16.64S211.48 144 207.53 144c-2.82 0-7.79 4.81-10.4 7.56v37.35h75.75z"/><path id="_Caminho_24" data-name="&lt;Caminho&gt;" class="cls-4" d="M192.7 199.44l1.67 3.93h87v-3.93H192.7z"/><path id="_Caminho_25" data-name="&lt;Caminho&gt;" class="cls-19" d="M235.69 124.85c-2.06.06-9-.76-11-2.64s-2-1.87-3.31-1.81-5.44.9-5.21-.28.64-1.59-.56-2.16-.43-2.48-2.73-4.38-6.83-2-8.76-.77-2.1 3.61-4.19 4.08c-.84.19-1.56-.89-2.84-1.16v11.08c9.46.1 20.94-.19 26.78.14 7.49.42 5.33-.82 11.64-.76 3.7.05 2.67-1.41.18-1.34z"/></g><g id="_Grupo_4" data-name="&lt;Grupo&gt;"><path id="_Caminho_26" data-name="&lt;Caminho&gt;" class="cls-12" d="M224 297.81l-65.44 27a13.19 13.19 0 0 1-5 1H53.36v-1.73l89.58-26.31z"/><path id="_Caminho_27" data-name="&lt;Caminho&gt;" class="cls-20" d="M224 289.81l-22.33 3.67h-58.73L78 313.8l-24.67 4.05v2.63a3 3 0 0 0 3 3h98.16a8.17 8.17 0 0 0 3.12-.62l64.56-26.68a3 3 0 0 0 1.87-2.8c.06-1.61-.04-3.57-.04-3.57z"/><path id="_Caminho_28" data-name="&lt;Caminho&gt;" class="cls-20" d="M224 289.81l-65.44 27a13.19 13.19 0 0 1-5 1H53.36l89.58-28z"/><path id="_Caminho_29" data-name="&lt;Caminho&gt;" class="cls-21" d="M223.58 290l-65 26.86a13.19 13.19 0 0 1-5 1H56.35"/><path id="_Caminho_30" data-name="&lt;Caminho&gt;" class="cls-14" d="M142.94 289.81l-20.79-68.25-91.18 18.9 22.39 77.4 89.58-28.05z"/><path id="_Caminho_31" data-name="&lt;Caminho&gt;" class="cls-22" d="M145.92 289.81l-21.29-69.45-91.19 18.9 22.9 78.6 89.58-28.05z"/><path id="_Caminho_32" data-name="&lt;Caminho&gt;" class="cls-23" d="M33.44 239.26l-2.47 1.2 22.39 77.4h2.98l-22.9-78.6z"/><g id="_Grupo_5" data-name="&lt;Grupo&gt;"><path id="_Caminho_33" data-name="&lt;Caminho&gt;" class="cls-14" d="M141 286.75l-82.39 25.42-20.26-69.23 84.03-17.81L141 286.75z"/><path id="_Caminho_34" data-name="&lt;Caminho&gt;" class="cls-2" d="M125.05 233.97l-83.96 18.62-2.74-9.65 84.03-17.81 2.67 8.84z"/><path id="_Caminho_35" data-name="&lt;Caminho&gt;" class="cls-20" d="M102.53 288.62l-26.77 7.29-11.27-39.35 26.94-6.22 11.1 38.28z"/><path id="_Caminho_36" data-name="&lt;Caminho&gt;" class="cls-2" d="M112.5 262.33L101.91 265a1.18 1.18 0 0 1-1.41-.79l-.53-1.84a1.07 1.07 0 0 1 .8-1.33l10.61-2.59a1.16 1.16 0 0 1 1.39.79l.53 1.81a1 1 0 0 1-.8 1.28z"/><path id="_Caminho_37" data-name="&lt;Caminho&gt;" class="cls-24" d="M110.77 268.15l-7.7 2a.85.85 0 0 1-1-.57l-.39-1.33a.78.78 0 0 1 .58-1l7.7-1.93a.84.84 0 0 1 1 .56l.38 1.32a.77.77 0 0 1-.57.95z"/></g></g><g class="cls-25" id="_Grupo_de_clipes_2" data-name="&lt;Grupo de clipes&gt;"><g id="_Grupo_6" data-name="&lt;Grupo&gt;"><ellipse id="_Caminho_38" data-name="&lt;Caminho&gt;" class="cls-26" cx="247.69" cy="464.54" rx="7.63" ry="2.55"/><path id="_Caminho_39" data-name="&lt;Caminho&gt;" class="cls-26" d="M240.06 464.54h15.26v16.25h-15.26z"/><path id="_Caminho_40" data-name="&lt;Caminho&gt;" class="cls-6" d="M252.49 464.28c0 .7-3.13 1.29-4.79 1.29s-4.81-.45-4.81-1.29v-33.14h9.6z"/><ellipse id="_Caminho_41" data-name="&lt;Caminho&gt;" class="cls-26" cx="247" cy="431.14" rx="19.33" ry="5.2"/><path id="_Caminho_42" data-name="&lt;Caminho&gt;" class="cls-23" d="M180.74 426.89a494.4 494.4 0 0 0 74.89 5.58c25.73 0 42.07-5 50.85-8.9a8.1 8.1 0 0 0 3.67-11.6l-3.7-6.13s-99.29-6.53-100.65-5.38-25.06 26.43-25.06 26.43z"/><path id="_Caminho_43" data-name="&lt;Caminho&gt;" class="cls-22" d="M180.74 423.65a494.4 494.4 0 0 0 74.89 5.58c25.73 0 42.07-5 50.85-8.9a8.1 8.1 0 0 0 3.67-11.6l-3.7-6.13s-99.29-6.53-100.65-5.38-25.06 26.43-25.06 26.43z"/><path id="_Caminho_44" data-name="&lt;Caminho&gt;" class="cls-23" d="M204.56 420.15s71 7.94 91.58-.45-38.73-19.38-38.73-19.38l-42.61 9.73z"/><path id="_Caminho_45" data-name="&lt;Caminho&gt;" class="cls-23" d="M340.38 227.38s25.27 15.05 25.27 51.61c0 31.31-21 55.58-59.75 60.78-40.55 5.44 17.81-112.56 19.73-112.39s14.75 0 14.75 0z"/><path id="_Caminho_46" data-name="&lt;Caminho&gt;" class="cls-22" d="M336.24 222.47S361.5 238.88 361.5 279c0 31.31-21.19 57.91-59.75 60.78-40.8 3 17.81-112.56 19.73-112.39s14.76-4.92 14.76-4.92z"/><path id="_Caminho_47" data-name="&lt;Caminho&gt;" class="cls-27" d="M255 351.89s-63-1.26-83.15-2.1-32.75-3.36-40.73 2.1-10.52 14.28-13.46 28.11-20.57 85.27-39.05 102.91 5 38.21 27.3 0 31.91-50.81 31.91-50.81l5.46-58.37 116.32 27.71 42.83-25.2z"/><path id="_Caminho_48" data-name="&lt;Caminho&gt;" class="cls-27" d="M283.72 355.71L318 381.58s3.76 19-8 31.19-50.81 11.34-81.47 5-58.23-30.14-88.12-13.39-6.37-34.9-6.37-34.9l16.8-4.62z"/><path id="_Caminho_49" data-name="&lt;Caminho&gt;" class="cls-27" d="M163.62 440.84c21.84-18.53 57.45-24.9 57.45-24.9s-58.36-35.87-72.57-25.06-18.61 19.36-23.25 46.24 2.91 100.85-5.06 119.33 25.86 5.89 27.76-7.84c2-14.79 4.52-24.14 11.76-50.39 6.71-24.34 3.91-57.38 3.91-57.38z"/><path id="_Caminho_50" data-name="&lt;Caminho&gt;" class="cls-28" d="M221.07 415.95s-50.59-16-63.19-16c-8.12 0-16.49.37-24.77 10-7.44 8.61-8.35 25.08-9.21 43.12"/><path id="_Caminho_51" data-name="&lt;Caminho&gt;" class="cls-28" d="M163.62 440.84a73.09 73.09 0 0 0-2.45-11.62"/><path id="_Caminho_52" data-name="&lt;Caminho&gt;" class="cls-29" d="M213 365.12c7.26-.77 22.79-5.67 27.1-5.67s30.38 1.61 30.38 1.61L252.16 345"/><path id="_Caminho_53" data-name="&lt;Caminho&gt;" class="cls-24" d="M211.73 231.79l-16.78 9.59s-25.33 34.55-16.06 34.56c10.91 0 21.83-5.38 35.15-11.33 7.36-3.29 26.29-16.24 26.29-16.24l-15-15.78z"/><path id="_Caminho_54" data-name="&lt;Caminho&gt;" class="cls-30" d="M314.88 103.22l4.25-8.36s9 9.55 9.2 22.86 1.12 25.7 1.27 40.72c.16 16.2 10.28 52.76 7.39 67.68s-46.34 25.77-46.34 25.77l-2.52-29v-53.75z"/><path id="_Caminho_55" data-name="&lt;Caminho&gt;" class="cls-30" d="M261.63 164.6s.78 30.72-4.44 45.28 15.81 17.5 15.81 17.5l10.66-41.57-3-17.43z"/><path id="_Caminho_56" data-name="&lt;Caminho&gt;" class="cls-24" d="M232.31 351.41s23.2 4.49 39.62 10.14c18.1 6.23 48.17 21.06 48.17 21.06s.69-42.53 2.79-62.26 15.59-108.26 15.59-108.26-28.89-7.18-49.27-6.34-42.21 4.17-42.21 4.17a32.78 32.78 0 0 0-9 14.3c-4.66 15.34-9.15 25.14-15.31 41.57-7.22 19.26 12.14 29.7 12.14 29.7-1.27 11.33-2.52 55.92-2.52 55.92z"/><path id="_Caminho_57" data-name="&lt;Caminho&gt;" class="cls-31" d="M276.81 181.37s6.18 22.19-8.35 25.91c0 0-3.19 2.6-4.91 10.58-2.22 10.26 6.78 19.39 6.78 19.39s11.11-3.32 19.9-9.65c9.15-6.59 16.12-16.27 22.74-20.07 0 0-5.5-4.92-6.13-11.74s-1.47-31.18-1.47-31.18l-25 12.39z"/><path id="_Caminho_58" data-name="&lt;Caminho&gt;" class="cls-32" d="M305.9 178.46c-.31-7.28-.53-13.86-.53-13.86l-25 12.39-3.57 4.38A42 42 0 0 1 278 188c5.31 0 18.27-2 27.46-9.11.13-.14.28-.28.44-.43z"/><g id="_Grupo_7" data-name="&lt;Grupo&gt;"><path id="_Caminho_59" data-name="&lt;Caminho&gt;" class="cls-33" d="M247.23 185.23c2.07-3.16 3.74-10 5.55-13.49 1.4-2.72 5.36-7.54 3.44-8.54-2.93-1.53-5.09 2-6.44 3.15s-5.22 2.22-5.22 2.22l-.42-10.51-6.61-3.42-7.44 3.36-4.45 21.86s2.4 4.07 2.68 4.06 12.84.61 12.84.61 3.45 2.6 3.86 2.23 1.84-.97 2.21-1.53z"/><path id="_Caminho_60" data-name="&lt;Caminho&gt;" class="cls-31" d="M219.66 185.88c-2.27 3.26-5.69 7.42-16.51 21.62s-41.57 44.8-41.57 58.37c0 5 12 11.19 18.67 9.91 10.14-1.93 12.48-8.52 12.48-8.52A223.46 223.46 0 0 0 204 245.21c5-11.58 5.59-17.51 14.45-30.78 9-13.51 11.18-16 15.79-19.37"/><g id="_Grupo_8" data-name="&lt;Grupo&gt;"><path id="_Caminho_61" data-name="&lt;Caminho&gt;" class="cls-34" d="M257.12 151l-2.9-16.4a1.42 1.42 0 0 0-1.82-1.11 1.4 1.4 0 0 0-1.71.79l-12.06 27.93a7.66 7.66 0 0 0-.51 4.37L241 183a1.42 1.42 0 0 0 1.82 1.11 1.4 1.4 0 0 0 1.71-.79l12.06-27.93a7.66 7.66 0 0 0 .53-4.39z"/><path id="_Caminho_62" data-name="&lt;Caminho&gt;" class="cls-35" d="M239.55 166.59l2.9 16.4a1.43 1.43 0 0 0 2.73.32l12.06-27.93a7.66 7.66 0 0 0 .51-4.37l-2.9-16.4a1.43 1.43 0 0 0-2.73-.32l-12.06 27.93a7.66 7.66 0 0 0-.51 4.37z"/></g><path id="_Caminho_63" data-name="&lt;Caminho&gt;" class="cls-31" d="M250.87 154.73c2 .24 2.7-1.09 1.89-2.54-.91-1.64-3.75-5.79-5.33-5.93a27 27 0 0 0-8.66 1.4c-3.07 1-4.32 3.64-4 3.73s16.1 3.34 16.1 3.34z"/><path id="_Caminho_64" data-name="&lt;Caminho&gt;" class="cls-31" d="M234.86 150.28c1.08-.66 7.25-1.83 9.66-1.93s7.09 6.55 6.52 8.15-2.6 2.06-5.41-.2c-5.92-4.76-14.62 0-13.33-2.62a8.1 8.1 0 0 1 2.56-3.4z"/><path id="_Caminho_65" data-name="&lt;Caminho&gt;" class="cls-31" d="M244.45 185.57c-2.6.1-4.87-2.34-6.44-3-2.53-1-7.16-.17-7.24-7.52a34.59 34.59 0 0 1 .41-5.73v-.11c.84-7.4 4.37-7.22 4.27-9.32 0-1-1.66-2-1.32-2.35.5-.56 1.42 1.85 3.49 1.33 2.75-.69.93-2.42 1.36-2.68.29-.17.69.69.88 1 .71 1.16 3.07 4.14 5.85 2.66 1.55-.83-1.24-7.94-3.21-8.28a30.4 30.4 0 0 0-10.1 1.14c-2.07.82-7.33 11.22-8 14.4s-1.3 13.7-4.7 18.75c-4 5.93 10.68 12.49 14.54 9.19s7.91-2.8 11.73-8 .47-1.56-1.52-1.48z"/><path id="_Caminho_66" data-name="&lt;Caminho&gt;" class="cls-36" d="M232.91 152.55a28.17 28.17 0 0 1 9.59-1c1.75.17 3.13 4.71 3.13 4.71"/><path id="_Caminho_67" data-name="&lt;Caminho&gt;" class="cls-36" d="M235.32 150.08s6.62-2.46 10-1.54 5.55 6.19 5.55 6.19"/><path id="_Caminho_68" data-name="&lt;Caminho&gt;" class="cls-33" d="M235.89 194.47c-3.86 1.73-11.74 12-15.44 17.66-8.74 13.26-12.88 26.23-18 38.28-4 9.49-4 9.35-7.7 11.64-1.62 1-5 1.08-2.48-.11 12-5.65 12.13-34.56 36.21-62.31 5-5.81 3.16-14.38 2.31-23.33-.35-3.72 2.77 0 7.14-2.64 3.07-1.86 1.48 12.22 6.38 11.38 2.12-.36 7.58-17.07 8.75-17.09s1.71.34 1.22 1.23c-6.6 12.01-3.81 18.74-18.39 25.29z"/><path id="_Caminho_69" data-name="&lt;Caminho&gt;" class="cls-24" d="M189.18 255.38l-15.48-12.61c-6.9 9-12.12 17.51-12.12 23.11 0 5 12 11.19 18.67 9.91 10.14-1.93 12.48-8.52 12.48-8.52s2.71-4.58 6-11z"/><path id="_Caminho_70" data-name="&lt;Caminho&gt;" class="cls-37" d="M195.71 262.39c-.91 1.68-3 6.91-7 9.79"/><path id="_Caminho_71" data-name="&lt;Caminho&gt;" class="cls-14" d="M188.32 244.25c3.88 1.6 12.86 2.88 16.84-.38l.48-1.22c2.4 2.41-4.41 18.4-8.73 19.78-2.92.93-11 1.58-19-2.16-10.8-5-11-11.52-9.88-13.24s6-9.8 10.55-10.37c-.06 0-.72 3.27 9.74 7.59z"/><path id="_Caminho_72" data-name="&lt;Caminho&gt;" class="cls-38" d="M175.54 253.39c4.25.53 14.2 1.51 20.68-1.83"/></g><path id="_Caminho_73" data-name="&lt;Caminho&gt;" class="cls-24" d="M246.58 210c-9.66 1.26-25.2 16.8-34.85 21.84a11.77 11.77 0 0 1 6.73 2.8 23.47 23.47 0 0 1 7.59 17.3 33.28 33.28 0 0 1-2.11 11.55l26.84-9.81 7.14-21.84c-.63-7.4-1.68-23.15-11.34-21.84z"/><path id="_Caminho_74" data-name="&lt;Caminho&gt;" class="cls-37" d="M241.63 224.22s-13.22 26.28-16.41 34.9"/><path id="_Caminho_75" data-name="&lt;Caminho&gt;" class="cls-39" d="M246.48 297.09a40.26 40.26 0 0 1-11.66-1.61c-.3 2.67-.59 7.19-.87 12.53 1.73-4.75 5.69-4.62 11.14-6.42s6.58-4.59 1.39-4.5z"/><g id="_Grupo_9" data-name="&lt;Grupo&gt;"><path id="_Caminho_76" data-name="&lt;Caminho&gt;" class="cls-33" d="M231.89 336.21s-6.82-3.67-10.82-4.2c-4.32-.57-5.66-1.39-11.75-3.19-4.6-1.36-1.69 7.93-1.69 7.93l8.76 1.48s13.08 2.22 13.7 1.85 6.35-4.13 6.35-4.13"/><g id="_Grupo_10" data-name="&lt;Grupo&gt;"><ellipse id="_Caminho_77" data-name="&lt;Caminho&gt;" class="cls-14" cx="196.12" cy="359.45" rx="16.87" ry="4.53"/><path id="_Caminho_78" data-name="&lt;Caminho&gt;" class="cls-14" d="M182.21 358.43l-2.96 1.02v-35.16h33.74v35.16l-30.78-1.02z"/><ellipse id="_Caminho_79" data-name="&lt;Caminho&gt;" class="cls-14" cx="196.12" cy="324.29" rx="16.87" ry="4.53"/><ellipse id="_Caminho_80" data-name="&lt;Caminho&gt;" class="cls-20" cx="196.12" cy="324.07" rx="14.33" ry="2.74"/><path id="_Caminho_81" data-name="&lt;Caminho&gt;" class="cls-40" d="M186.35 326.07a64.94 64.94 0 0 0 19.55 0 64.94 64.94 0 0 0-19.55 0z"/></g><path id="_Caminho_82" data-name="&lt;Caminho&gt;" class="cls-31" d="M240.7 353.78c-2.33.27-15 7.45-18.63 8.88-5.37 2.1-8.7 3-18.69 2.84-6.88-.09-9.32-.26-9.58-1.79-.47-2.7 6-2.59 8.66-2.9s8.64-.43 8.64-1.6-12.28-.69-15.36-.68c-5.77 0-12-.28-12-2.71 0-2.68 6.48-2.44 13.39-2.84 3.52-.2 11.18-.14 11.18-1.16s-9.77-.91-13.65-1.11c-8.23-.42-12.83-.28-12.83-2.87s5.62-2.45 12.77-2.64c4.07-.11 15.3-.68 15.3-2 0-1.48-7.77-3.45-14.07-3.78-5.61-.29-11.29.7-11.29-2.39 0-2.53 12.26-3 14.79-3 3.15 0 12.63 1.4 19.17 1.77s12.06.71 18 .15 11.6 16.96 4.2 17.83z"/><g id="_Grupo_11" data-name="&lt;Grupo&gt;"><path id="_Caminho_83" data-name="&lt;Caminho&gt;" class="cls-33" d="M193.49 339.39c.76 0 1.53 0 2.3.06 1.12.06 2.28.17 3.44.32v-4.19a11.18 11.18 0 0 0-.12-1.56c-1 0-3.24.08-5.65.3.66.4 1.18 3.96.03 5.07z"/><path id="_Caminho_84" data-name="&lt;Caminho&gt;" class="cls-33" d="M195.72 358.53l3.39-.06a4.93 4.93 0 0 0 .11-1v-4.62c-.8 0-1.54.05-2.14.09-1.22.07-2.43.12-3.59.17a5.3 5.3 0 0 1 .11 4.46 1.76 1.76 0 0 1-1.62.87c1.23.08 2.5.09 3.74.09z"/><path id="_Caminho_85" data-name="&lt;Caminho&gt;" class="cls-33" d="M194.61 350.71c1.15.06 2.83.08 4.61.12V345c-1.85.11-3.54.17-4.67.2h-1.06c1.19 1 .86 4.54 0 5.43z"/></g><path id="_Caminho_86" data-name="&lt;Caminho&gt;" class="cls-14" d="M194.24 331.51c0 .74.93.74.93 3.61v22c0 1.11-2 1.06-2 2a2.94 2.94 0 0 0 2.91 2.43c1.72 0 4.82-.44 4.82-4v-21.97c0-2.41-.72-5.64-3.86-5.64-1.92-.01-2.8.78-2.8 1.57z"/></g><path id="_Caminho_87" data-name="&lt;Caminho&gt;" class="cls-39" d="M320.71 358.82c.38-11.33.95-24.49 1.78-34.21l-52 15.16-38.13 10.56v1.09s21.87 4.24 38.17 9.65c.11 0 43.36 2.36 50.18-2.25z"/><path id="_Caminho_88" data-name="&lt;Caminho&gt;" class="cls-31" d="M325.22 251.89L315.12 302a223.38 223.38 0 0 0-20.56 10c-9.92 5.84-44.06 21.69-58.13 23.88-12.18 1.89-12.17 4.76-26 9-7.06 2.19-5 .52-6.5 1.74s-4.45 3.86 7.77 3 19.43 2.3 19.43 2.3-.18 4.2 10.43 1.49c38.87-9.91 86.64-23.75 91.55-29.73s11-37.68 15.89-76.78-17.59-15.8-17.59-15.8z"/><path id="_Caminho_89" data-name="&lt;Caminho&gt;" class="cls-29" d="M221.07 415.95s-50.59-16-63.19-16c-5.64 0-11.41.18-17.18 3.51l-6.36 4.68s9-5.92 29.22-4c13.82 1.3 33.82 8.38 41 16a111.25 111.25 0 0 1 16.51-4.2z"/><path id="_Caminho_90" data-name="&lt;Caminho&gt;" class="cls-24" d="M335.54 211.41c-10.86-2-14.59 12.81-15.71 29.27-.83 12.41-1.83 24.46-1.83 24.46-2.93 25.91-2.86 36.89-2.86 36.89s-8.77 3.74-16.26 7.67 5.27 1.06 8.15 5.09 4.89 15.49 0 20.22c13.91-4.56 24-8.6 26.12-11.18 7.28-6.2 11.41-34.45 14.22-60.44l.18.06c.29-2.5.38-3.85.67-6 4.12-32.24 1.78-43.45-12.68-46.04z"/><path id="_Caminho_91" data-name="&lt;Caminho&gt;" class="cls-37" d="M319.83 240.68c-.83 12.41-1.83 24.46-1.83 24.46-2.93 25.91-2.86 36.89-2.86 36.89s-8.77 3.74-16.26 7.67"/><path id="_Caminho_92" data-name="&lt;Caminho&gt;" class="cls-37" d="M327.75 308a16 16 0 0 0-12.62-6"/><path id="_Caminho_93" data-name="&lt;Caminho&gt;" class="cls-14" d="M294.56 312.07a9.46 9.46 0 0 1 1.42-2.66c1.78-1.73 11.45-6.77 13.36-6.77 2.83 0 10.35 3.07 13.79 13 3 8.54.39 15-1.71 16.22-11.54 6.72-17.91 4.27-17.91 4.27s4.43-.75 5.32-3.82.58-9.51-1.13-14.13-6.42-8.78-13.14-6.11z"/><path id="_Caminho_94" data-name="&lt;Caminho&gt;" class="cls-14" d="M276.57 200.29s-6.06.64-13.14 6.08c-7.72 5.94-12.83 8.87-11.77 10.91.5 1 5.66-1.85 11.3-.94 2.45.4 12 13 12 13l-2.21-20.49z"/><path id="_Caminho_95" data-name="&lt;Caminho&gt;" class="cls-32" d="M297.15 182.14a35.42 35.42 0 0 0 2.73 7.87c1.88 4 6.29 16 6 23.21l1-1 2-12.43-3.68-21.19-5.93.49z"/><path id="_Caminho_96" data-name="&lt;Caminho&gt;" class="cls-39" d="M305.9 213.22c0 2.83-.77 9.8-2.14 12.77s3.29 1.4 3.29 1.4l4-11.65-4.19-3.49z"/><path id="_Caminho_97" data-name="&lt;Caminho&gt;" class="cls-14" d="M275 229.38s15.93-12 20.73-12.57 12.6 3.51 15.39 3.21 3.42-14.33 3.42-14.33-7.18-9.87-8.6-7.41c-7.07 12.19-26.17 17.28-30.94 31.1z"/><path id="_Caminho_98" data-name="&lt;Caminho&gt;" class="cls-41" d="M308.58 219.67c1-3.56 3.06-10.66 3.16-11.31.06-.37.11-3.05.13-6-2.2-2.6-5.12-5.55-6-4.08a26.1 26.1 0 0 1-2 2.9 5.55 5.55 0 0 1 1.84 2.43c.34 1.3 3.26 9-.31 15.12 1.19.36 2.25.7 3.18.94z"/><g id="_Grupo_12" data-name="&lt;Grupo&gt;"><path id="_Caminho_99" data-name="&lt;Caminho&gt;" class="cls-31" d="M310.44 105.31c-1-7.63-31-17.36-31-17.36s-24.6 7-28 22.73c-1.14 5.26-3.2 11.53-.74 18 3.08 8.11.72 13.67.72 21.45s2.69 16.29 10.61 25.91c8.78 10.65 14.41 10.63 26.94 2.56 14.31-9.21 17.54-13.59 19.66-23.33s2.79-42.33 1.81-49.96z"/><path id="_Caminho_100" data-name="&lt;Caminho&gt;" class="cls-31" d="M309.57 137.86s2.63-5.92 6.26-5.87 3 11.11 1 15.4-6.1 10.28-8.77 7.33 1.51-16.86 1.51-16.86z"/><path id="_Caminho_101" data-name="&lt;Caminho&gt;" class="cls-30" d="M294.81 131.63c1.22 1.33.59 1.58-.44.82-1.38-1-2.3-2-5.12-2.48-5.19-.79-11.2 1.35-13.52 1-.83-.12-.68-2.2.14-2.59 3.11-1.5 8.64-1.78 12.39-1.2 4.1.67 5.26 3.05 6.55 4.45z"/><path id="_Caminho_102" data-name="&lt;Caminho&gt;" class="cls-30" d="M310.57 139.51s-1.51-4.21-1.51-12.46c0-10.53-5.74-16.07-14-19.45-6.58-2.7-26.56-2.72-31.62-7.41a100.32 100.32 0 0 1-7.21 7.93c-5.38 5.5-5.92 9.31-5.92 9.31s-1.42-11.09 7.69-22c6.26-7.48 14.35-13.09 26.28-13.09s29.06 6 34.82 12.5-8.53 44.67-8.53 44.67z"/><path id="_Caminho_103" data-name="&lt;Caminho&gt;" class="cls-30" d="M263.47 100.19s-1 14.75 28.54 19.63c10.81 1.78 13.41 6.72 13.41 6.72V124s1.79-10.81-9.94-14.13c-9.68-2.74-16.8-8.25-24.68-9.1"/><path id="_Caminho_104" data-name="&lt;Caminho&gt;" class="cls-30" d="M264.48 89.1c-3.85 0-18.18 11.07-14.53 30.38l2-10.31 3.64-6.58 10.08-9.1s.33-4.37-1.19-4.39z"/><path id="_Caminho_105" data-name="&lt;Caminho&gt;" class="cls-30" d="M258 92.83s1-9.21 13.2-13.43c7.39-2.57 29.08-5.17 45.21 9.7 15.4 14.2 11.29 28.3 12.5 47.49"/><g id="_Grupo_13" data-name="&lt;Grupo&gt;"><path id="_Caminho_106" data-name="&lt;Caminho&gt;" class="cls-33" d="M278.82 153.52c0-2-2.49-2.75-2.65-2.42s1.76.41 1.76 2.36a1.8 1.8 0 0 1-1.84 1.86c-.75-.1-.55-.82-1.08-1.45a2 2 0 0 0-2.07-.56c-1.65.23-2.76 1.74-5.1 1.81-1.51 0-3.08-.26-3.65-1.48-1-2.11 1.43-5 1-5.33s-2.38 2.84-2.38 4.58 1.35 3.76 4.92 3.78a8.14 8.14 0 0 0 1.24-.18c1.58-.36 3.52-1.42 5.46-.7a5.14 5.14 0 0 0 2.16.52 2.51 2.51 0 0 0 2.23-2.79z"/></g><path id="_Caminho_107" data-name="&lt;Caminho&gt;" class="cls-30" d="M251.59 129.95a6 6 0 0 1 1.41-.36c5-1 9.16 1.21 11.37.81.79-.15-1.2-2.35-1.9-2.78-1.76-1.07-6.55-1.69-10.1-.69a7.09 7.09 0 0 0-1.73.63c-.74.44.09 2.68.95 2.39z"/><g id="_Grupo_14" data-name="&lt;Grupo&gt;"><path id="_Caminho_108" data-name="&lt;Caminho&gt;" class="cls-42" d="M258.54 138.57a2.77 2.77 0 1 0 5.53.25c.07-1.53-1.38-2.26-2.91-2.33s-2.55.51-2.62 2.08z"/></g><path id="_Caminho_109" data-name="&lt;Caminho&gt;" class="cls-31" d="M264.49 140.57c-3 .5-6 1-9.58-.51 0 0-.68 3.35-.16 3.53s3.54.63 3.54.63l5.27-1.95z"/><path id="_Caminho_110" data-name="&lt;Caminho&gt;" class="cls-33" d="M277 138.05a6.18 6.18 0 0 1 6.31-4.65c5.34 0 7 4.82 8.82 4.79l-1.66.42a9.57 9.57 0 0 0-1.49-.51c-.47-.07-3.49-.54-3.69-.87a7.27 7.27 0 0 0-2-.89l-3.75.29-.57.61z"/><path id="_Caminho_111" data-name="&lt;Caminho&gt;" class="cls-42" d="M292.09 138.19c-2.77 0-4.63-2.79-8.57-2.79s-5.88 1.71-6.56 2.65a.45.45 0 0 0-.09.5c.26.47.76.22 1.38-.1a10.36 10.36 0 0 1 5.17-1.3 8.66 8.66 0 0 1 3 .85 10.8 10.8 0 0 0 4 1.06 4.54 4.54 0 0 0 1.83-.37l.93-.41s-.83-.09-1.09-.09z"/><g id="_Grupo_15" data-name="&lt;Grupo&gt;"><circle id="_Caminho_112" data-name="&lt;Caminho&gt;" class="cls-42" cx="284.32" cy="139.33" r="2.77"/></g><path id="_Caminho_113" data-name="&lt;Caminho&gt;" class="cls-31" d="M278.67 141.4c2.46.28 4.62 1 8.24-.39 0 0 .52 3.38 0 3.54s-3.56.47-3.56.47l-4.68-2.23z"/><path id="_Caminho_114" data-name="&lt;Caminho&gt;" class="cls-33" d="M253 137.5c1.54-.41 1.86-3.8 5.28-4.38 5.17-.87 7.4 5 7.4 5l-4.39-1.57-3.8-.42-3.36 1.65z"/><path id="_Caminho_115" data-name="&lt;Caminho&gt;" class="cls-42" d="M265.7 138.11c-.63-1-2.44-3.23-5.32-3.23-3.49 0-5.17 1.92-6.57 2.39a6.68 6.68 0 0 1-2.15.39s1.34 1.41 4.62 0a7.11 7.11 0 0 1 3-.71 10.36 10.36 0 0 1 5.11 1.53c.61.35 1.1.63 1.38.16a.45.45 0 0 0-.07-.53z"/><g id="_Grupo_16" data-name="&lt;Grupo&gt;"><circle id="_Caminho_116" data-name="&lt;Caminho&gt;" class="cls-43" cx="267.55" cy="145.36" r=".52"/><circle id="_Caminho_117" data-name="&lt;Caminho&gt;" class="cls-43" cx="270.52" cy="144.49" r=".52"/><circle id="_Caminho_118" data-name="&lt;Caminho&gt;" class="cls-43" cx="267.55" cy="140.56" r=".52"/><circle id="_Caminho_119" data-name="&lt;Caminho&gt;" class="cls-43" cx="264.08" cy="145.36" r=".52"/><circle id="_Caminho_120" data-name="&lt;Caminho&gt;" class="cls-43" cx="261.85" cy="142.29" r=".52"/><circle id="_Caminho_121" data-name="&lt;Caminho&gt;" class="cls-43" cx="260.8" cy="145.89" r=".52"/><circle id="_Caminho_122" data-name="&lt;Caminho&gt;" class="cls-43" cx="258.54" cy="145.89" r=".52"/><circle id="_Caminho_123" data-name="&lt;Caminho&gt;" class="cls-43" cx="255.82" cy="145.89" r=".52"/><circle id="_Caminho_124" data-name="&lt;Caminho&gt;" class="cls-43" cx="259.88" cy="144.49" r=".52"/><circle id="_Caminho_125" data-name="&lt;Caminho&gt;" class="cls-43" cx="261.85" cy="144.49" r=".52"/><circle id="_Caminho_126" data-name="&lt;Caminho&gt;" class="cls-43" cx="264.08" cy="143.34" r=".52"/><circle id="_Caminho_127" data-name="&lt;Caminho&gt;" class="cls-43" cx="267.55" cy="143.16" r=".52"/><circle id="_Caminho_128" data-name="&lt;Caminho&gt;" class="cls-43" cx="269.2" cy="142.82" r=".52"/><circle id="_Caminho_129" data-name="&lt;Caminho&gt;" class="cls-43" cx="272.06" cy="142.82" r=".52"/><circle id="_Caminho_130" data-name="&lt;Caminho&gt;" class="cls-43" cx="272.79" cy="144.74" r=".52"/><circle id="_Caminho_131" data-name="&lt;Caminho&gt;" class="cls-43" cx="275.63" cy="143.16" r=".52"/><circle id="_Caminho_132" data-name="&lt;Caminho&gt;" class="cls-43" cx="277.59" cy="145.26" r=".52"/><circle id="_Caminho_133" data-name="&lt;Caminho&gt;" class="cls-43" cx="277.07" cy="146.94" r=".52"/><circle id="_Caminho_134" data-name="&lt;Caminho&gt;" class="cls-43" cx="280.98" cy="144.21" r=".52"/><circle id="_Caminho_135" data-name="&lt;Caminho&gt;" class="cls-43" cx="282.91" cy="145.89" r=".52"/><circle id="_Caminho_136" data-name="&lt;Caminho&gt;" class="cls-43" cx="282.91" cy="148.28" r=".52"/><circle id="_Caminho_137" data-name="&lt;Caminho&gt;" class="cls-43" cx="286.1" cy="147.76" r=".52"/><circle id="_Caminho_138" data-name="&lt;Caminho&gt;" class="cls-43" cx="284.81" cy="145.26" r=".52"/><circle id="_Caminho_139" data-name="&lt;Caminho&gt;" class="cls-43" cx="259.52" cy="149.33" r=".52"/><circle id="_Caminho_140" data-name="&lt;Caminho&gt;" class="cls-43" cx="257.51" cy="149.68" r=".52"/><circle id="_Caminho_141" data-name="&lt;Caminho&gt;" class="cls-43" cx="254.11" cy="145.89" r=".52"/><circle id="_Caminho_142" data-name="&lt;Caminho&gt;" class="cls-43" cx="255.82" cy="143.69" r=".52"/><circle id="_Caminho_143" data-name="&lt;Caminho&gt;" class="cls-43" cx="255.82" cy="147.46" r=".52"/><circle id="_Caminho_144" data-name="&lt;Caminho&gt;" class="cls-43" cx="253.01" cy="149.33" r=".52"/><circle id="_Caminho_145" data-name="&lt;Caminho&gt;" class="cls-43" cx="257.51" cy="142.29" r=".52"/><circle id="_Caminho_146" data-name="&lt;Caminho&gt;" class="cls-43" cx="253.54" cy="143.34" r=".52"/><circle id="_Caminho_147" data-name="&lt;Caminho&gt;" class="cls-43" cx="272.79" cy="146.41" r=".52"/><circle id="_Caminho_148" data-name="&lt;Caminho&gt;" class="cls-43" cx="273.84" cy="142.82" r=".52"/><circle id="_Caminho_149" data-name="&lt;Caminho&gt;" class="cls-43" cx="276.02" cy="145.36" r=".52"/><circle id="_Caminho_150" data-name="&lt;Caminho&gt;" class="cls-43" cx="273.32" cy="139.51" r=".52"/><circle id="_Caminho_151" data-name="&lt;Caminho&gt;" class="cls-43" cx="279.2" cy="143.16" r=".52"/><circle id="_Caminho_152" data-name="&lt;Caminho&gt;" class="cls-43" cx="277.07" cy="148.81" r=".52"/><circle id="_Caminho_153" data-name="&lt;Caminho&gt;" class="cls-43" cx="281.51" cy="150.42" r=".52"/><circle id="_Caminho_154" data-name="&lt;Caminho&gt;" class="cls-43" cx="280.98" cy="146.41" r=".52"/><circle id="_Caminho_155" data-name="&lt;Caminho&gt;" class="cls-43" cx="284.56" cy="143.34" r=".52"/><circle id="_Caminho_156" data-name="&lt;Caminho&gt;" class="cls-43" cx="284.28" cy="147.46" r=".52"/><circle id="_Caminho_157" data-name="&lt;Caminho&gt;" class="cls-43" cx="287.15" cy="149.68" r=".52"/><circle id="_Caminho_158" data-name="&lt;Caminho&gt;" class="cls-43" cx="288.66" cy="146.94" r=".52"/><circle id="_Caminho_159" data-name="&lt;Caminho&gt;" class="cls-43" cx="286.62" cy="145.89" r=".52"/><circle id="_Caminho_160" data-name="&lt;Caminho&gt;" class="cls-43" cx="288.66" cy="143.87" r=".52"/><circle id="_Caminho_161" data-name="&lt;Caminho&gt;" class="cls-43" cx="291.81" cy="145.89" r=".52"/><circle id="_Caminho_162" data-name="&lt;Caminho&gt;" class="cls-43" cx="290.42" cy="150.73" r=".52"/><circle id="_Caminho_163" data-name="&lt;Caminho&gt;" class="cls-43" cx="297.73" cy="143.16" r=".52"/><circle id="_Caminho_164" data-name="&lt;Caminho&gt;" class="cls-43" cx="265.48" cy="142.82" r=".52"/><circle id="_Caminho_165" data-name="&lt;Caminho&gt;" class="cls-43" cx="270.52" cy="141.6" r=".52"/></g><path id="_Caminho_166" data-name="&lt;Caminho&gt;" class="cls-32" d="M316.43 139.23c0-2.51-.91-4.71-2.12-4.71s-4.78 4.46-4.46 6.35 3 1.92 3 3.87-3.49 1.85-3.65 4.42 7.23-.34 7.23-9.93z"/><path id="_Caminho_167" data-name="&lt;Caminho&gt;" class="cls-36" d="M251.65 150.49s.06 1.69.3 4.27"/><path id="_Caminho_168" data-name="&lt;Caminho&gt;" class="cls-30" d="M290.42 106.07s12.38 2.83 14.67 15.28c1.85 10.05-6.47 47.44-1.67 65.84 3.67 14.06 9.54 34.66-11 55.24 0 0 30.61-12.62 22.7-48.71-3.59-16.38-7-40.31-2.3-60.59 0 0 1.49-23.61 2.3-24.24s-7.91-11.13-7.91-11.13z"/><path id="_Caminho_169" data-name="&lt;Caminho&gt;" class="cls-30" d="M290.94 106.07s12.38 2.83 14.67 15.28c1.85 10.05-5 51.7-1.67 65.84s9.54 34.66-11 55.24c0 0 30.61-12.62 22.7-48.71-3.59-16.38-7-40.31-2.3-60.59 0 0 1.49-23.61 2.3-24.24s-7.91-11.13-7.91-11.13z"/><path id="_Caminho_170" data-name="&lt;Caminho&gt;" class="cls-44" d="M309.65 100.78s7.88 5.64 5.07 23.27c-2.52 15.81-6.12 29.57-1.91 57.58.55 3.68 2.13 8.82 3.06 14.81"/><path id="_Caminho_171" data-name="&lt;Caminho&gt;" class="cls-44" d="M264.08 90.58a36.74 36.74 0 0 0-.62 10.2"/><path id="_Caminho_172" data-name="&lt;Caminho&gt;" class="cls-44" d="M305.41 126.54s0-6.28-1.47-9.07"/><path id="_Caminho_173" data-name="&lt;Caminho&gt;" class="cls-44" d="M268.68 99.18s2.37 13 26 18.68"/><path id="_Caminho_174" data-name="&lt;Caminho&gt;" class="cls-44" d="M277.87 103a27.48 27.48 0 0 0 12.55 10.66"/><g id="_Grupo_17" data-name="&lt;Grupo&gt;"><path id="_Caminho_175" data-name="&lt;Caminho&gt;" class="cls-33" d="M285.07 159.25c1.13 1.49 2.11 2.62 1.33 4.38s.36 1 1.05 0a3.1 3.1 0 0 0 .23-2c-.86-1.89-3.68-3.82-2.61-2.38z"/><path id="_Caminho_176" data-name="&lt;Caminho&gt;" class="cls-33" d="M259.62 160.78c-1 1.35-1.9 2.36-1.2 3.95s-.32.93-.95 0a2.79 2.79 0 0 1-.21-1.84c.74-1.67 3.34-3.4 2.36-2.11z"/><path id="_Caminho_177" data-name="&lt;Caminho&gt;" class="cls-33" d="M271.3 167.9c3.36 0 5.41-.71 5.41-.18 0 .76-2.64 2.55-5 2.54-2.07 0-4.32-1.58-4.32-2.3-.01-.53 1.22-.06 3.91-.06z"/><path id="_Caminho_178" data-name="&lt;Caminho&gt;" class="cls-33" d="M261.41 163.13c-.06-.07-.52-.55-.74-.82s-1-.13-.84.69 1.61 1.13 3.6.84z"/><path id="_Caminho_179" data-name="&lt;Caminho&gt;" class="cls-33" d="M282 163.13s2.56-.16 2.81-.85-.42-1.17-1.4-.18-1.41 1.03-1.41 1.03z"/><g id="_Grupo_18" data-name="&lt;Grupo&gt;"><path id="_Caminho_180" data-name="&lt;Caminho&gt;" class="cls-45" d="M283.89 161.55c.43.45-2.84 2.29-8.19 2.41-1.9 0-3.1.76-4 .76a27 27 0 0 1-3.27-.42 27.89 27.89 0 0 0-3.85-.42c-1.3 0-3.83-.82-3.67-1.24a12.42 12.42 0 0 0 3.38 0c3-.39 3.87-.71 4.81-.71s1.35.78 2.41.78 1.69-1 2.71-1a42.32 42.32 0 0 0 5.78.29 25.69 25.69 0 0 0 3.89-.45z"/><path id="_Caminho_181" data-name="&lt;Caminho&gt;" class="cls-46" d="M283.89 161.72c-2 1.78-4.34 1.88-7.86 2.2-1.62.14-3.43.8-4.3.8-1.22 0-3.71-.63-4.71-.63-2.73 0-4.62-.16-6.09-1.27"/></g></g></g><path id="_Caminho_182" data-name="&lt;Caminho&gt;" class="cls-14" d="M288.35 217.72L275 229.38s-5.18-11.95-5-12.52c.11-.3-2.85-1.19-5.67-2-.28.89-.54 1.87-.78 3-2.22 10.26 6.78 19.39 6.78 19.39s11.11-3.32 19.9-9.65c5-3.59 9.33-8.1 13.31-12.08-6.38.87-15.19 2.2-15.19 2.2z"/><path id="_Caminho_183" data-name="&lt;Caminho&gt;" class="cls-38" d="M263.81 216.76s3.24 1.46 6.77 8.23"/><path id="_Caminho_184" data-name="&lt;Caminho&gt;" class="cls-38" d="M301.53 217.54a14.33 14.33 0 0 0-5.83-.73 28.38 28.38 0 0 0-12.33 4.61"/><path id="_Caminho_185" data-name="&lt;Caminho&gt;" class="cls-38" d="M272.76 208.89a30.41 30.41 0 0 1 0-4.51"/><path id="_Caminho_186" data-name="&lt;Caminho&gt;" class="cls-38" d="M272.38 234.2a33 33 0 0 0 2.59-4.82"/><path id="_Caminho_187" data-name="&lt;Caminho&gt;" class="cls-38" d="M308.51 308.47a68.37 68.37 0 0 0 9.64 5.76"/><path id="_Caminho_188" data-name="&lt;Caminho&gt;" class="cls-38" d="M314.12 331.29s3.89-2.88 4.82-5.61"/><path id="_Caminho_189" data-name="&lt;Caminho&gt;" class="cls-37" d="M259.78 220.87a21.33 21.33 0 0 0 3.41 13.33"/></g></g><g id="_Grupo_19" data-name="&lt;Grupo&gt;"><path id="_Caminho_190" data-name="&lt;Caminho&gt;" class="cls-14" d="M120 174.2H85a7.48 7.48 0 0 0-7.46 7.46v35a7.48 7.48 0 0 0 7.46 7.5h6a2.89 2.89 0 0 1 2 .85l7.51 7.51a2.83 2.83 0 0 0 4 0L112 225a2.89 2.89 0 0 1 2-.85h6a7.48 7.48 0 0 0 7.46-7.46v-35a7.48 7.48 0 0 0-7.46-7.49z"/><path id="_Caminho_191" data-name="&lt;Caminho&gt;" class="cls-47" d="M117.1 194.3a7.88 7.88 0 0 0-7.61-7.49 7.64 7.64 0 0 0-7 4.82 7.64 7.64 0 0 0-7-4.82 7.87 7.87 0 0 0-7.6 7.38v1.27c.12 3.33 1.67 12.46 14.59 18.4 16.08-7.38 14.62-19.56 14.62-19.56z"/></g><g id="_Grupo_20" data-name="&lt;Grupo&gt;" class="cls-48"><path id="_Caminho_192" data-name="&lt;Caminho&gt;" class="cls-14" d="M171.46 158.23h-27a5.76 5.76 0 0 0-5.74 5.74v27a5.76 5.76 0 0 0 5.74 5.74h4.59a2.23 2.23 0 0 1 1.57.65l5.78 5.78a2.18 2.18 0 0 0 3.08 0l5.78-5.78a2.23 2.23 0 0 1 1.57-.65h4.59a5.76 5.76 0 0 0 5.78-5.71v-27a5.76 5.76 0 0 0-5.74-5.77z"/><path id="_Caminho_193" data-name="&lt;Caminho&gt;" class="cls-47" d="M169.19 173.71a6.07 6.07 0 0 0-5.86-5.77 5.88 5.88 0 0 0-5.36 3.71 5.88 5.88 0 0 0-5.36-3.71 6.06 6.06 0 0 0-5.86 5.68v.98c.09 2.56 1.28 9.6 11.24 14.17 12.33-5.68 11.2-15.06 11.2-15.06z"/></g><g id="_Grupo_21" data-name="&lt;Grupo&gt;" class="cls-49"><path id="_Caminho_194" data-name="&lt;Caminho&gt;" class="cls-14" d="M128.63 138.43h-15.49a3.31 3.31 0 0 0-3.3 3.3v15.49a3.31 3.31 0 0 0 3.3 3.3h2.64a1.28 1.28 0 0 1 .9.37l3.32 3.32a1.25 1.25 0 0 0 1.77 0l3.32-3.32a1.28 1.28 0 0 1 .9-.37h2.64a3.31 3.31 0 0 0 3.3-3.3v-15.49a3.31 3.31 0 0 0-3.3-3.3z"/><path id="_Caminho_195" data-name="&lt;Caminho&gt;" class="cls-47" d="M127.33 147.32A3.48 3.48 0 0 0 124 144a3.38 3.38 0 0 0-3.08 2.13 3.38 3.38 0 0 0-3.08-2.13 3.48 3.48 0 0 0-3.36 3.26v.55c.05 1.47.74 5.51 6.45 8.14 7.07-3.25 6.4-8.63 6.4-8.63z"/></g></g></g></svg>